<svg width="1502" height="1502" viewBox="0 0 1502 1502" fill="none" xmlns="http://www.w3.org/2000/svg">
<g clip-path="url(#clip0_7_5)">
<circle cx="751" cy="759" r="746" fill="#485462"/>
<path fill-rule="evenodd" clip-rule="evenodd" d="M407.18 1251.95C407.18 1258.02 412.105 1262.95 418.18 1262.95H751.326H1084.47C1090.55 1262.95 1095.47 1258.02 1095.47 1251.95V1143.08C1095.47 1137.01 1090.55 1132.08 1084.47 1132.08H805.781C799.706 1132.08 794.781 1127.16 794.781 1121.08V461.975C813.494 450.981 827.675 433.105 833.848 411.823H1121.45C1129.02 411.823 1134.33 419.291 1131.84 426.439L994.318 821.532H949.551C942.378 821.532 937.136 828.26 939.456 835.047C960.433 896.421 1027.84 997.351 1164.66 997.351C1301.09 997.351 1372.21 896.286 1395.66 835.416C1398.3 828.56 1393.04 821.532 1385.7 821.532H1345.86L1206.06 426.493C1203.52 419.335 1208.83 411.823 1216.42 411.823H1233.82C1239.89 411.823 1244.82 406.898 1244.82 400.823V374.872C1244.82 368.797 1239.89 363.873 1233.82 363.873H833.848C827.675 342.591 813.494 324.714 794.781 313.721V251C794.781 244.925 789.856 240 783.781 240H751.326H718.871C712.796 240 707.871 244.925 707.871 251V313.721C689.158 324.714 674.977 342.591 668.804 363.873H268.834C262.759 363.873 257.834 368.797 257.834 374.872V400.823C257.834 406.898 262.759 411.823 268.834 411.823H286.227C293.821 411.823 299.13 419.335 296.597 426.493L156.662 821.901H115.661C108.481 821.901 103.234 828.636 105.557 835.43C126.539 896.805 193.945 997.72 330.759 997.72C467.18 997.72 538.297 896.671 561.753 835.799C564.398 828.936 559.132 821.901 551.777 821.901H508.462L370.81 426.439C368.322 419.291 373.63 411.823 381.199 411.823H668.804C674.977 433.105 689.158 450.981 707.871 461.975V1121.08C707.871 1127.16 702.946 1132.08 696.871 1132.08H418.18C412.105 1132.08 407.18 1137.01 407.18 1143.08V1251.95ZM453.502 821.901H215.91L323.356 483.536C326.595 473.333 341.021 473.299 344.308 483.487L453.502 821.901ZM1286.62 821.532L1179.3 483.536C1176.06 473.333 1161.63 473.299 1158.34 483.487L1049.27 821.532H1286.62Z" fill="#D7D7D7"/>
</g>
<defs>
<clipPath id="clip0_7_5">
<rect width="1502" height="1502" fill="white"/>
</clipPath>
</defs>
</svg>
