<svg width="1502" height="1502" viewBox="0 0 1502 1502" fill="none" xmlns="http://www.w3.org/2000/svg">
<rect x="5" y="5" width="1492" height="1492" rx="337" fill="#0A214D"/>
<rect x="35" y="35" width="1432" height="1432" rx="337" fill="#111835"/>
<path fill-rule="evenodd" clip-rule="evenodd" d="M382.809 1288.15C382.809 1294.23 387.734 1299.15 393.809 1299.15H751.314H1108.82C1114.89 1299.15 1119.82 1294.23 1119.82 1288.15V1170.02C1119.82 1163.95 1114.89 1159.02 1108.82 1159.02H1070.95C1064.87 1159.02 1059.95 1154.1 1059.95 1148.02V1136.89C1059.95 1130.82 1055.02 1125.89 1048.95 1125.89H808.845C802.77 1125.89 797.845 1120.97 797.845 1114.89V441.483C817.882 429.712 833.068 410.57 839.677 387.782H1148.73C1156.3 387.782 1161.61 395.249 1159.12 402.398L1011.51 826.491H963.57C955.889 826.491 950.277 833.695 952.761 840.963C975.222 906.681 1047.4 1014.75 1193.91 1014.75C1340 1014.75 1416.15 906.536 1441.26 841.358C1444.09 834.016 1438.45 826.491 1430.59 826.491H1387.93L1237.86 402.452C1235.33 395.293 1240.64 387.782 1248.23 387.782H1268.74C1274.81 387.782 1279.74 382.857 1279.74 376.782V347.437C1279.74 341.362 1274.81 336.437 1268.74 336.437H839.677C833.068 313.649 817.882 294.507 797.845 282.736V214.797C797.845 208.722 792.92 203.797 786.845 203.797H751.314H715.783C709.708 203.797 704.783 208.722 704.783 214.797V282.736C684.746 294.507 669.561 313.649 662.951 336.437H233.891C227.816 336.437 222.891 341.362 222.891 347.437V376.782C222.891 382.857 227.816 387.782 233.891 387.782H254.396C261.989 387.782 267.299 395.293 264.766 402.452L114.558 826.886H69.6525C62.472 826.886 57.2264 833.631 59.518 840.436C81.6168 906.06 153.782 1015.15 300.978 1015.15C447.779 1015.15 523.959 905.874 548.692 840.804C551.305 833.928 546.039 826.886 538.683 826.886H491.26L343.505 402.398C341.016 395.249 346.324 387.782 353.893 387.782H662.951C669.561 410.57 684.746 429.712 704.783 441.483V1115.48C704.783 1121.56 699.858 1126.48 693.783 1126.48H453.054C446.979 1126.48 442.054 1131.41 442.054 1137.48V1148.02C442.054 1154.1 437.129 1159.02 431.054 1159.02H393.809C387.734 1159.02 382.809 1163.95 382.809 1170.02V1288.15ZM432.409 826.886H178L293.787 462.252C297.027 452.049 311.452 452.016 314.74 462.203L432.409 826.886ZM1324.5 826.491L1208.84 462.252C1205.6 452.049 1191.18 452.016 1187.89 462.203L1070.35 826.491H1324.5Z" fill="white"/>
</svg>
