<svg width="1502" height="1502" viewBox="0 0 1502 1502" fill="none" xmlns="http://www.w3.org/2000/svg">
<g clip-path="url(#clip0_7_5)">
<circle cx="751" cy="759" r="746" fill="#627188"/>
<rect x="5" y="5" width="1492" height="1492" rx="337" fill="#919FB9"/>
<rect x="35" y="35" width="1432" height="1432" rx="337" fill="#627188"/>
<path fill-rule="evenodd" clip-rule="evenodd" d="M382.849 1288.13C382.849 1294.21 387.774 1299.13 393.849 1299.13H751.34H1108.83C1114.91 1299.13 1119.83 1294.21 1119.83 1288.13V1170.01C1119.83 1163.93 1114.91 1159.01 1108.83 1159.01H1070.96C1064.88 1159.01 1059.96 1154.08 1059.96 1148.01V1136.88C1059.96 1130.81 1055.04 1125.88 1048.96 1125.88H808.87C802.795 1125.88 797.87 1120.96 797.87 1114.88V441.495C817.906 429.724 833.091 410.583 839.7 387.796H1148.75C1156.31 387.796 1161.62 395.263 1159.13 402.412L1011.52 826.488H963.588C955.907 826.488 950.295 833.692 952.779 840.96C975.24 906.675 1047.41 1014.74 1193.92 1014.74C1340 1014.74 1416.15 906.53 1441.26 841.355C1444.09 834.013 1438.45 826.488 1430.59 826.488H1387.93L1237.87 402.465C1235.34 395.307 1240.65 387.796 1248.24 387.796H1268.74C1274.82 387.796 1279.74 382.871 1279.74 376.796V347.453C1279.74 341.378 1274.82 336.453 1268.74 336.453H839.7C833.091 313.666 817.906 294.525 797.87 282.753V214.817C797.87 208.742 792.945 203.817 786.87 203.817H751.34H715.811C709.736 203.817 704.811 208.742 704.811 214.817V282.753C684.775 294.525 669.59 313.666 662.981 336.453H233.938C227.862 336.453 222.938 341.378 222.938 347.453V376.796C222.938 382.871 227.862 387.796 233.938 387.796H254.44C262.034 387.796 267.343 395.307 264.81 402.465L114.609 826.883H69.7051C62.5246 826.883 57.279 833.629 59.5706 840.434C81.6688 906.055 153.831 1015.14 301.021 1015.14C447.816 1015.14 523.993 905.869 548.726 840.801C551.339 833.926 546.072 826.883 538.717 826.883H491.296L343.546 402.412C341.058 395.263 346.366 387.796 353.935 387.796H662.981C669.59 410.583 684.775 429.724 704.811 441.495V1115.47C704.811 1121.55 699.886 1126.47 693.811 1126.47H453.092C447.017 1126.47 442.092 1131.4 442.092 1137.47V1148.01C442.092 1154.08 437.168 1159.01 431.092 1159.01H393.849C387.774 1159.01 382.849 1163.93 382.849 1170.01V1288.13ZM432.448 826.883H178.048L293.83 462.264C297.07 452.061 311.495 452.028 314.783 462.215L432.448 826.883ZM1324.51 826.488L1208.85 462.264C1205.61 452.061 1191.19 452.028 1187.9 462.216L1070.36 826.488H1324.51Z" fill="white"/>
</g>
<defs>
<clipPath id="clip0_7_5">
<rect width="1502" height="1502" fill="white"/>
</clipPath>
</defs>
</svg>
