<svg width="1502" height="1502" viewBox="0 0 1502 1502" fill="none" xmlns="http://www.w3.org/2000/svg">
<path fill-rule="evenodd" clip-rule="evenodd" d="M416.539 1237.95C416.539 1244.02 421.464 1248.95 427.539 1248.95H751.264H1074.99C1081.07 1248.95 1085.99 1244.02 1085.99 1237.95V1132.66C1085.99 1126.59 1081.07 1121.66 1074.99 1121.66H1042.6C1036.53 1121.66 1031.6 1116.74 1031.6 1110.66V1102.57C1031.6 1096.5 1026.68 1091.57 1020.6 1091.57H804.53C798.455 1091.57 793.53 1086.65 793.53 1080.57V469.899C811.731 459.206 825.524 441.819 831.527 421.12H1110.84C1118.41 421.12 1123.71 428.587 1121.23 435.736L987.605 819.614H944.064C937.087 819.614 931.989 826.158 934.245 832.76C954.648 892.454 1020.21 990.621 1153.29 990.621C1285.99 990.621 1355.16 892.322 1377.96 833.119C1380.53 826.45 1375.42 819.614 1368.27 819.614H1329.52L1193.69 435.79C1191.16 428.631 1196.47 421.12 1204.06 421.12H1220.25C1226.32 421.12 1231.25 416.195 1231.25 410.12V385.482C1231.25 379.407 1226.32 374.482 1220.25 374.482H831.527C825.524 353.783 811.731 336.396 793.53 325.703V265C793.53 258.925 788.605 254 782.53 254H751.264H719.999C713.924 254 708.999 258.925 708.999 265V325.703C690.798 336.396 677.005 353.783 671.002 374.482H282.28C276.205 374.482 271.28 379.407 271.28 385.482V410.12C271.28 416.195 276.205 421.12 282.28 421.12H298.47C306.064 421.12 311.374 428.631 308.84 435.79L172.878 819.973H133.387C126.206 819.973 120.96 826.706 123.296 833.496C143.845 893.225 209.41 990.98 342.209 990.98C474.617 990.98 543.775 893.11 566.736 833.866C569.394 827.008 564.129 819.973 556.774 819.973H515.049L381.304 435.736C378.815 428.587 384.123 421.12 391.692 421.12H671.002C677.005 441.819 690.798 459.206 708.999 469.899V1081.11C708.999 1087.18 704.074 1092.11 697.999 1092.11H481.354C475.279 1092.11 470.354 1097.03 470.354 1103.11V1110.66C470.354 1116.74 465.429 1121.66 459.354 1121.66H427.539C421.464 1121.66 416.539 1126.59 416.539 1132.66V1237.95ZM461.592 819.973H230.504L334.724 491.766C337.964 481.563 352.389 481.53 355.676 491.717L461.592 819.973ZM1271.91 819.614L1167.81 491.766C1164.57 481.563 1150.14 481.53 1146.85 491.717L1041.05 819.614H1271.91Z" fill="#111835"/>
</svg>
