<svg width="1502" height="1502" viewBox="0 0 1502 1502" fill="none" xmlns="http://www.w3.org/2000/svg">
<g clip-path="url(#clip0_7_5)">
<path fill-rule="evenodd" clip-rule="evenodd" d="M750.5 1502C1165.54 1502 1502 1165.54 1502 750.5C1502 335.458 1165.54 -1 750.5 -1C335.458 -1 -1 335.458 -1 750.5C-1 1165.54 335.458 1502 750.5 1502ZM427.539 1248.95C421.464 1248.95 416.539 1244.02 416.539 1237.95V1132.66C416.539 1126.59 421.464 1121.66 427.539 1121.66H459.354C465.429 1121.66 470.354 1116.74 470.354 1110.66V1103.11C470.354 1097.03 475.279 1092.11 481.354 1092.11H697.999C704.074 1092.11 708.999 1087.18 708.999 1081.11V469.899C690.798 459.206 677.005 441.819 671.002 421.12H391.692C384.123 421.12 378.815 428.587 381.304 435.736L515.049 819.973H556.774C564.129 819.973 569.394 827.008 566.736 833.866C543.775 893.11 474.617 990.98 342.209 990.98C209.41 990.98 143.845 893.225 123.296 833.496C120.96 826.706 126.206 819.973 133.387 819.973H172.878L308.84 435.79C311.374 428.631 306.064 421.12 298.47 421.12H282.28C276.205 421.12 271.28 416.195 271.28 410.12V385.482C271.28 379.407 276.205 374.482 282.28 374.482H671.002C677.005 353.783 690.798 336.396 708.999 325.703V265C708.999 258.925 713.924 254 719.999 254H751.265H782.53C788.605 254 793.53 258.925 793.53 265V325.703C811.731 336.396 825.524 353.783 831.527 374.482H1220.25C1226.32 374.482 1231.25 379.407 1231.25 385.482V410.12C1231.25 416.195 1226.32 421.12 1220.25 421.12H1204.06C1196.47 421.12 1191.16 428.631 1193.69 435.79L1329.52 819.614H1368.27C1375.42 819.614 1380.53 826.45 1377.96 833.119C1355.16 892.322 1285.99 990.621 1153.29 990.621C1020.21 990.621 954.648 892.454 934.245 832.76C931.989 826.158 937.087 819.614 944.064 819.614H987.605L1121.23 435.736C1123.71 428.587 1118.41 421.12 1110.84 421.12H831.527C825.524 441.819 811.731 459.206 793.53 469.899V1080.57C793.53 1086.65 798.455 1091.57 804.53 1091.57H1020.6C1026.68 1091.57 1031.6 1096.5 1031.6 1102.57V1110.66C1031.6 1116.74 1036.53 1121.66 1042.6 1121.66H1074.99C1081.07 1121.66 1085.99 1126.59 1085.99 1132.66V1237.95C1085.99 1244.02 1081.07 1248.95 1074.99 1248.95H751.265H427.539ZM230.504 819.973H461.592L355.676 491.717C352.389 481.53 337.964 481.563 334.724 491.766L230.504 819.973ZM1167.81 491.766L1271.91 819.614H1041.05L1146.85 491.717C1150.14 481.53 1164.57 481.563 1167.81 491.766Z" fill="white"/>
</g>
<defs>
<clipPath id="clip0_7_5">
<rect width="1502" height="1502" fill="white"/>
</clipPath>
</defs>
</svg>
